<?xml version="1.0" encoding="UTF-8"?>
<!DOCTYPE svg PUBLIC "-//W3C//DTD SVG 1.1//EN" "http://www.w3.org/Graphics/SVG/1.1/DTD/svg11.dtd">
<!-- Creator: CorelDRAW -->
<svg xmlns="http://www.w3.org/2000/svg" xml:space="preserve" width="91.8977mm" height="92.0292mm" version="1.1" style="shape-rendering:geometricPrecision; text-rendering:geometricPrecision; image-rendering:optimizeQuality; fill-rule:evenodd; clip-rule:evenodd"
viewBox="0 0 10724.43 10739.77"
 xmlns:xlink="http://www.w3.org/1999/xlink"
 xmlns:xodm="http://www.corel.com/coreldraw/odm/2003">
 <defs>
  <style type="text/css">
   <![CDATA[
    .fil0 {fill:#2B2A29}
   ]]>
  </style>
 </defs>
 <g id="Livello_x0020_1">
  <metadata id="CorelCorpID_0Corel-Layer"/>
  <path class="fil0" d="M4736.13 3311.36c65.25,63.44 -303.27,178.48 -332.57,199.26l-42.07 -37.44c0,-27.03 321.57,-151.39 374.64,-161.83zm1704.82 3936.08c-56.53,22.09 -400.59,196.97 -425.97,171.02 -4.49,-36.34 -2.07,-45.27 27.46,-66.12 85.06,-60.08 282.77,-90.94 373.29,-172.21l25.22 67.31zm17.15 -3748.45c-9.84,110.29 -165.55,-10.86 -227.16,-37.3 -50.55,-21.67 -272.53,-73.35 -215.89,-150.39l443.05 187.69zm-1743.25 3855.86c9.36,11.28 8.72,45.82 21.36,63.53 -27.27,21.24 -382.1,-138.66 -431.88,-173.08 -49.36,-34.16 -61.69,-53.87 6.42,-75.11 52.18,68.61 379.48,154.99 404.11,184.65zm-1393.59 -2629.13c-24.79,-24.2 159.48,-398.9 190.87,-448.11 13.04,-20.45 43.8,-86.29 73.05,-80.01 26.25,20.57 25.94,21.29 18.43,51.76 -11.03,44.75 -113.48,203.87 -143.62,265.85 -14.26,29.34 -81.97,265.92 -138.73,210.51zm63.65 1299.65c11.51,10.26 91.77,240.47 114.51,286.17 55.58,111.7 134.99,219.87 206.58,321.99l-18.26 68.88c-76.65,-3.28 -351.29,-573.87 -366.61,-672.95 -6.45,-41.67 55.05,-11.83 63.79,-4.08zm4044.93 -21.26c-37.76,140.1 -97.63,276.57 -167.48,403.33 -23.75,43.1 -180.25,302.95 -215.78,295.24l-23.07 -56.53c74.87,-96.35 148.21,-198.61 204.69,-306.92 45.23,-86.72 78.34,-218.71 119.73,-289.36 16.16,-27.58 49.18,-48.02 81.9,-45.76zm-358.24 -1976.94c143.37,219.7 280.11,445.86 358.33,698.47l-76.96 -16.62c-40.04,-123.74 -89.67,-244.91 -152.86,-358.47 -29.78,-53.51 -187.72,-261.98 -178.68,-296.28 4.57,-17.29 30.39,-32.43 50.18,-27.11zm-1983.51 1483.91c20.55,-3.66 189.58,191.98 202.47,220.96 8.38,18.85 14.31,31.33 0.34,50.08l-1508.94 1730.63c-294.84,197.51 -530.88,-143.74 -306.93,-392.04l1613.06 -1609.63zm2372.38 -2571.36c154.65,-13.46 149.88,156.16 79.13,251.11l-1874.21 2148.21c-38.98,-57.81 -358.02,-356.84 -342.13,-391.7 512.01,-539.63 1011.04,-1127.02 1560.87,-1627.77 134.85,-122.8 396.09,-364.16 576.33,-379.85zm-2093.43 1700.89l0 -3442.6 -588.18 2726.47 -91.04 -97.25 696.09 -3310.84 695.19 3369.75c-0.98,52.9 -274.93,304.11 -328.72,362.25 -92.01,99.49 -178.81,209.35 -272.3,307.25 -29.13,30.52 -66.27,81.54 -111.05,84.98zm0 4925.31l613.85 -2931.24c20.43,-23.82 109.17,102.93 111.75,127.03l-725.39 3451.72 -717.11 -3434.95 16.97 -51.08 699.93 -791.56 0 3630.08zm-4176.95 -4192.48l3153.98 664.87c5.08,6.71 -92.44,118.16 -126.85,102.88l-3644.32 -755.95 -47.61 -28.67 3418.41 -700.37c57.59,3.36 161.3,157.26 221.01,206.36 210.55,173.16 452.41,142.88 593.44,237.45 18.56,12.43 166.37,189.8 191.35,222.14 13.29,17.21 32.75,21.67 25.42,51.29l-3784.83 0zm8370.94 0c2.54,-26.9 -44.71,-23.29 -65.35,-28.3 -968,-234.71 -2011.32,-357.87 -2966.38,-613.7 -29.3,-7.85 -58.3,-17.82 -88.14,-22.85l80.41 -98.95 3687.23 755.19 -3728.95 788.57 -703.33 -703.28c15.03,-11.41 70.16,-76.68 76.41,-76.68l3708.1 0zm-6330.35 -2005.65c276.92,296.9 533.08,642.92 814.88,932.14 47.15,48.4 75.04,81.97 124.22,8.58 -234.44,-308.64 -525.66,-577.76 -772.08,-877.69 -28.45,-34.61 -118.07,-133.14 -124.78,-165.89 -20.69,-101.06 46.48,-71.68 99.73,-30.63 274.06,211.21 570.43,679.78 834.48,938.16 47.66,46.64 71.76,65.84 116.08,-0.3 -200.33,-259.04 -438.39,-492.46 -652.75,-741.33 -46.32,-53.76 -244.26,-270.24 -247.04,-316.92 -5.44,-90.94 58.3,-50.01 102.66,-15.94 258.84,198.63 578.84,674.7 826.36,929.3 46.75,48.07 74.93,82.16 124.22,8.55l-880.45 -1007.86 -18.02 -80.97 38.76 -25.58 199.1 176.41c283.48,374.75 705.86,709.64 985.48,1077.03 148.75,195.46 139.32,390.56 177.94,623.11 697.88,844.18 1517.15,1586.8 2304.79,2348.69 130.8,270.38 -189.19,548.39 -434.87,366.53 -618.61,-797.91 -1206.7,-1695.89 -1899.81,-2429.7 -234.87,-248.64 -477.16,-149.08 -723.02,-367.97l-1107.09 -1314.22 14.03 -64.7 97.19 31.21zm4064.44 -816c4.91,4.22 10.15,7.22 17.25,8.74 33.39,7.13 2.42,-1.62 -17.25,-8.74zm-7009.46 3259.23c-104.4,-47.44 -179.52,-121.39 -226.99,-207.95 -47.31,-86.18 -65.41,-183.55 -56.42,-278.42 8.74,-92.22 43.69,-182.73 102.77,-258.28 63.13,-80.72 151.77,-143.91 263.03,-173.66l16.22 -3.26 1534.87 -318.16c56.49,-188.08 126.79,-372.56 211.4,-551.42 104.83,-221.61 232.71,-434.51 384.69,-634.79 205.6,-270.96 445.49,-509.64 711.95,-708.52 266.72,-199.07 561.05,-360.59 875.48,-477.29 126.09,-46.8 258.72,-82.07 391.43,-117.38l49.18 -13.12 353.21 -1697.98 7.57 -28.11c37.33,-115.24 107.6,-202.29 194.18,-260.5 79.67,-53.57 172.55,-80.98 265.76,-82.16 92.67,-1.19 185.87,23.71 266.78,74.75 88.66,55.93 161.73,141.12 202.26,255.09l9.73 35.69 356.06 1702.36c121.48,27.63 240.81,62.39 357.54,103.22 186.96,65.39 368.79,146.98 543.4,240.27 38.67,20.67 86.64,52.88 137.47,87.01 27.05,18.18 39.41,33.82 49.56,45 63.64,-18.36 132.64,-37.83 202.88,-37.57 74.1,0.28 140.13,13.09 198.18,35.98 116.76,46.03 201.84,127.83 257.12,229.15 47.91,87.79 70.97,188.89 70.59,290.14 -0.08,22.24 -1.24,44.52 -3.42,66.69 195.97,218.45 370.65,459.13 512.79,717.41 126.75,230.31 227.95,474.44 295.86,729.19l1528.77 315.31 -0.02 0.12c82.65,15.87 147.84,49.22 204.78,94.77 49.46,39.57 82.53,78.54 113.86,120l56.25 74.41 0 279.61 -23.8 109.23c-37.45,86.51 -83.04,144.05 -145.78,190.68 -54.69,40.63 -104.89,60.71 -167.73,81.25l-29.2 7.57 -1449.72 303.01c-111.32,715.82 -448.76,1363.41 -933.07,1872 -494.26,519.01 -1142.75,894.53 -1860.66,1050.92l-273.4 1306.32 -11.89 41.09c-49.59,130.95 -140.98,222 -249.11,272.93 -60.1,28.31 -125.59,43.59 -192.08,45.84 -64.71,2.19 -129.65,-8.26 -190.56,-31.33 -114.7,-43.44 -216.08,-129.43 -276.33,-257.38l-20.55 -60.57 -284.54 -1320.7c-714.96,-154.8 -1351,-525.21 -1838.84,-1036.68 -501.93,-526.25 -847.58,-1202.25 -961.55,-1946.73 -265.69,-74.01 -1469.66,-255.83 -1473.74,-256.68l-56.24 -18.39zm113.56 -252c-185.95,-84.48 -152.5,-347.65 40.19,-399.17l1701.45 -352.69c115.4,-453.45 310.96,-882.61 593.92,-1255.51 375.07,-494.32 881.74,-876.64 1464.13,-1092.79 189.81,-70.45 387.22,-111.28 580.57,-169.53l387.4 -1862.27c64.67,-199.72 335.59,-201.8 405.51,-5.24l393.57 1881.76c351.87,56.93 691.03,183.95 1004.04,351.2 62.28,33.28 241.9,166.92 285.06,176.13 35.71,7.64 169.56,-49.49 234.64,-49.25 230.42,0.86 294.4,243.13 221.54,427.94 425.34,441.77 758.58,991.38 880.17,1599.28l1703.02 351.24c71.9,12.88 111.58,56.06 153.14,111.06l0 187.47c-32.54,75.15 -71.07,93.88 -145.86,118.35l-1642.66 343.34c-137.37,1476.08 -1325.36,2682.25 -2777.17,2916.31l-311.17 1486.73c-69.89,184.53 -316.28,186.71 -399.74,9.5l-323.27 -1500.43c-1461.23,-234.23 -2606.14,-1440.72 -2775.04,-2909.54 -8.9,-10.04 -1673.43,-363.88 -1673.43,-363.88z"/>
 </g>
</svg>
