<?xml version="1.0" encoding="UTF-8"?>
<!DOCTYPE svg PUBLIC "-//W3C//DTD SVG 1.1//EN" "http://www.w3.org/Graphics/SVG/1.1/DTD/svg11.dtd">
<!-- Creator: CorelDRAW -->
<svg xmlns="http://www.w3.org/2000/svg" xml:space="preserve" width="19.7215mm" height="19.7215mm" version="1.1" style="shape-rendering:geometricPrecision; text-rendering:geometricPrecision; image-rendering:optimizeQuality; fill-rule:evenodd; clip-rule:evenodd"
viewBox="0 0 6456.04 6456.04"
 xmlns:xlink="http://www.w3.org/1999/xlink"
 xmlns:xodm="http://www.corel.com/coreldraw/odm/2003">
 <defs>
  <style type="text/css">
   <![CDATA[
    .fil0 {fill:black}
    .fil2 {fill:#F9B131;fill-rule:nonzero}
    .fil1 {fill:white;fill-rule:nonzero}
   ]]>
  </style>
 </defs>
 <g id="Livello_x0020_1">
  <metadata id="CorelCorpID_0Corel-Layer"/>
  <rect class="fil0" x="-0.02" y="-0.02" width="6456.04" height="6456.04"/>
  <g id="_2736187913872">
   <path class="fil1" d="M5890.95 3105.57c-21.08,-27.86 -64.78,-85.67 -150.42,-101.71l-785.27 -161.98c-67.57,-262.15 -209.02,-516.25 -413.36,-742.13 9.2,-71.5 -5.7,-143.06 -43.34,-198.61 -45.11,-66.52 -116.31,-103.31 -200.51,-103.61 -34.05,-0.23 -68.94,9.95 -99.81,18.89 -0.07,0 -0.13,0.03 -0.2,0.03 -12.96,-8.38 -28.02,-18.5 -38.96,-25.83 -26.88,-18.04 -50.09,-33.62 -67.93,-43.15 -154.38,-82.49 -309.98,-141.13 -463.67,-174.81l-184.53 -882.2 -2.75 -7.73c-33.36,-93.76 -117.72,-153.83 -215.57,-153.83 -1.15,0 -2.29,0.03 -3.44,0.03 -98.99,1.41 -182.96,64.1 -213.93,159.72l-2 6.19 -182.6 877.82c-12.15,3.27 -24.42,6.55 -36.96,9.89 -63.87,16.99 -129.93,34.54 -195.93,59.06 -314.2,116.61 -589.15,321.76 -795.16,593.28 -134.12,176.74 -235.34,380.13 -301.4,605.49l-789.27 163.65 -6.68 1.54c-95.79,25.63 -162.96,105.77 -171.11,204.14 -7.92,95.75 43.93,183.49 132.09,223.55l11.92 5.43 12.83 2.72c242.25,51.49 608.24,129.9 764.48,164.66 27.17,166.17 77.72,327.52 150.68,480.83 83.08,174.48 193.11,334.27 327.03,474.9 134.12,140.8 288.37,258.42 458.5,349.56 150.42,80.6 310.11,138.74 475.69,173.3l149.7 694.72 5.86 12.44c39.05,82.95 121.03,135.3 210.53,135.27 2.98,0 5.99,-0.03 9,-0.16 92.51,-3.6 170.72,-60.53 204.04,-148.56l3.31 -8.77 142.96 -683.04c353.09,-74.44 683.59,-257.99 937.99,-522.5 136.28,-141.68 247.26,-302.06 329.82,-476.67 72.71,-153.73 121.68,-315.02 146.04,-480.66l753.65 -157.49 6.29 -2.06c51.89,-16.96 110.32,-42.13 146.79,-126.43l9.92 -22.85c0,0 15.35,-35.88 15.35,-75.1 0,-39.22 -15.35,-85.05 -15.35,-85.05l-24.32 -32.18z"/>
   <path class="fil0" d="M708.02 3323.79c-94.15,-42.75 -77.22,-175.99 20.33,-202.08l861.38 -178.54c58.4,-229.55 157.43,-446.81 300.65,-635.6 189.9,-250.27 446.39,-443.84 741.24,-553.24 96.08,-35.68 196.02,-56.34 293.9,-85.83l196.12 -942.77c32.74,-101.12 169.9,-102.17 205.29,-2.68l199.26 952.65c178.12,28.84 349.82,93.13 508.29,177.82 31.52,16.86 122.47,84.49 144.33,89.17 18.04,3.83 85.83,-25.08 118.77,-24.94 116.67,0.43 149.05,123.09 112.15,216.65 215.34,223.65 384.06,501.88 445.6,809.66l862.17 177.79c36.4,6.55 56.47,28.41 77.52,56.24l0 94.9c-16.47,38.04 -35.98,47.53 -73.85,59.91l-831.59 173.83c-69.56,747.3 -670.99,1357.89 -1405.95,1476.4l-157.56 752.67c-35.39,93.43 -160.11,94.54 -202.37,4.81l-163.65 -759.57c-739.74,-118.6 -1319.36,-729.39 -1404.87,-1472.99 -4.52,-5.11 -847.18,-184.24 -847.18,-184.24z"/>
   <path class="fil1" d="M2141.43 2214.46c140.21,150.32 269.88,325.49 412.54,471.92 23.9,24.49 38.01,41.51 62.89,4.32 -118.67,-156.25 -266.11,-292.5 -390.87,-444.33 -14.4,-17.51 -59.78,-67.4 -63.15,-83.97 -10.51,-51.17 23.54,-36.27 50.48,-15.52 138.74,106.92 288.76,344.15 422.46,474.93 24.13,23.64 36.34,33.36 58.79,-0.13 -101.45,-131.17 -221.95,-249.32 -330.47,-375.32 -23.47,-27.2 -123.68,-136.8 -125.08,-160.44 -2.75,-46.03 29.53,-25.3 51.98,-8.09 131.04,100.57 293.02,341.6 418.33,470.48 23.67,24.32 37.94,41.57 62.89,4.32l-445.7 -510.22 -9.13 -40.99 19.61 -12.96 100.79 89.3c143.51,189.74 357.35,359.28 498.9,545.25 75.33,98.96 70.55,197.73 90.09,315.48 353.32,427.37 768.09,803.31 1166.81,1189.04 66.23,136.87 -95.75,277.6 -220.15,185.55 -313.19,-403.93 -610.89,-858.57 -961.78,-1230.06 -118.9,-125.87 -241.56,-75.46 -366.02,-186.27l-560.47 -665.36 7.1 -32.74 49.17 15.78z"/>
   <path class="fil2" d="M5346.22 3229.84c1.28,-13.62 -22.62,-11.78 -33.1,-14.31 -490.03,-118.83 -1018.22,-181.19 -1501.73,-310.7 -14.83,-3.96 -29.5,-9.04 -44.62,-11.56l40.69 -50.09 1866.71 382.29 -1887.82 399.22 -356.07 -356.04c7.63,-5.76 35.52,-38.82 38.69,-38.82l1877.25 0z"/>
   <path class="fil2" d="M1108.38 3229.84l1596.73 336.62c2.59,3.37 -46.81,59.81 -64.23,52.08l-1844.97 -382.72 -24.09 -14.53 1730.59 -354.56c29.17,1.7 81.68,79.61 111.89,104.49 106.62,87.67 229.05,72.31 300.45,120.21 9.36,6.29 84.2,96.08 96.87,112.45 6.71,8.71 16.56,10.97 12.87,25.96l-1916.11 0z"/>
   <path class="fil2" d="M3222.99 5352.31l310.76 -1483.96c10.34,-12.05 55.26,52.12 56.57,64.33l-367.23 1747.45 -363.04 -1738.97 8.61 -25.86 354.33 -400.72 0 1837.74z"/>
   <path class="fil2" d="M3222.99 2858.84l0 -1742.83 -297.77 1380.32 -46.09 -49.27 352.4 -1676.12 351.95 1705.97c-0.49,26.78 -139.19,153.96 -166.43,183.39 -46.58,50.35 -90.52,105.97 -137.85,155.53 -14.73,15.45 -33.55,41.28 -56.21,43.02z"/>
   <path class="fil1" d="M4282.79 1997.75c78.3,-6.81 75.88,79.09 40.07,127.15l-948.82 1087.52c-19.74,-29.23 -181.26,-180.64 -173.21,-198.28 259.2,-273.18 511.83,-570.56 790.22,-824.06 68.25,-62.17 200.51,-184.37 291.74,-192.32z"/>
   <path class="fil1" d="M3081.77 3299.53c10.41,-1.87 95.98,97.19 102.5,111.86 4.26,9.56 7.27,15.88 0.16,25.37l-763.9 876.15c-149.28,99.98 -268.76,-72.77 -155.4,-198.48l816.63 -814.9z"/>
   <path class="fil1" d="M4085.95 2548.3c72.58,111.2 141.78,225.71 181.39,353.58l-38.96 -8.41c-20.26,-62.62 -45.4,-123.97 -77.39,-181.46 -15.09,-27.11 -95.07,-132.65 -90.45,-150 2.29,-8.74 15.39,-16.43 25.4,-13.72z"/>
   <path class="fil1" d="M4267.31 3549.14c-19.12,70.91 -49.43,139.98 -84.79,204.17 -12.01,21.8 -91.27,153.37 -109.24,149.47l-11.69 -28.61c37.91,-48.78 75.03,-100.57 103.64,-155.4 22.88,-43.9 39.64,-110.71 60.59,-146.49 8.18,-13.95 24.91,-24.29 41.48,-23.14z"/>
   <path class="fil1" d="M2219.54 3559.91c5.83,5.17 46.45,121.71 57.98,144.86 28.15,56.57 68.32,111.3 104.56,163.03l-9.23 34.86c-38.79,-1.67 -177.85,-290.53 -185.61,-340.68 -3.27,-21.11 27.89,-6.02 32.31,-2.06z"/>
   <path class="fil1" d="M2187.32 2901.95c-12.57,-12.24 80.73,-201.95 96.6,-226.86 6.61,-10.34 22.2,-43.67 36.99,-40.53 13.29,10.44 13.13,10.8 9.33,26.22 -5.57,22.65 -57.45,103.18 -72.71,134.58 -7.23,14.86 -41.48,134.64 -70.22,106.59z"/>
   <path class="fil1" d="M2892.82 4232.97c4.75,5.7 4.42,23.18 10.8,32.15 -13.78,10.77 -193.44,-70.19 -218.64,-87.63 -24.98,-17.28 -31.23,-27.24 3.24,-38.01 26.42,34.73 192.13,78.47 204.6,93.49z"/>
   <path class="fil1" d="M3775.35 2280.88c-4.98,55.85 -83.8,-5.5 -115,-18.86 -25.6,-10.97 -137.95,-37.12 -109.31,-76.14l224.31 95z"/>
   <path class="fil1" d="M3766.67 4178.59c-28.61,11.16 -202.8,99.71 -215.67,86.59 -2.26,-18.43 -1.01,-22.95 13.91,-33.49 43.08,-30.41 143.15,-46.03 188.99,-87.18l12.77 34.08z"/>
   <path class="fil1" d="M2903.59 2185.92c33.03,32.11 -153.53,90.35 -168.36,100.86l-21.28 -18.95c-0.03,-13.68 162.76,-76.64 189.64,-81.91z"/>
   <path class="fil1" d="M3947.9 3782.03c-11.46,-5.93 -79.61,-67.8 -68.91,-77.58 36.86,-4.55 61.31,47.47 68.91,77.58z"/>
   <path class="fil1" d="M3947.9 2677.68l-47.37 77.45c-19.41,-15.55 -10.7,-12.11 0,-25.7 13.06,-16.56 31.92,-37.12 47.37,-51.76z"/>
   <path class="fil1" d="M2558.35 3704.44c9.04,10.61 -31.72,46.26 -34.41,43.08 -3.47,-8.22 22.72,-56.83 34.41,-43.08z"/>
  </g>
 </g>
</svg>
